<svg id="Layer_1" data-name="Layer 1" xmlns="http://www.w3.org/2000/svg" viewBox="0 0 186 120"><defs><style>.cls-1{fill:#7fc0c4;}.cls-2{fill:#00467f;}</style></defs><title>e-gift_card</title><rect class="cls-1" x="3.7" y="26.42" width="178.61" height="33.5"/><path class="cls-2" d="M23.77,87.71,20.64,82H23l1.31,2.61c.28.54.53,1.09.88,1.8h.08c.29-.71.53-1.26.79-1.8L27.26,82h2.22l-3.13,5.8,3.34,6H27.37L25.93,91c-.3-.6-.6-1.19-.94-1.91h-.07c-.31.72-.59,1.31-.87,1.91l-1.4,2.78H20.43Z"/><path class="cls-2" d="M33.51,87.71,30.38,82h2.31L34,84.62c.28.54.53,1.09.88,1.8H35c.3-.71.54-1.26.8-1.8L37,82h2.22l-3.13,5.8,3.34,6H37.11L35.67,91c-.3-.6-.6-1.19-.94-1.91h-.08c-.31.72-.59,1.31-.87,1.91l-1.39,2.78H30.17Z"/><path class="cls-2" d="M43.25,87.71,40.11,82h2.32l1.31,2.61c.28.54.54,1.09.89,1.8h.07c.3-.71.53-1.26.79-1.8L46.74,82H49l-3.13,5.8,3.34,6H46.85L45.41,91c-.31-.6-.6-1.19-.95-1.91h-.07c-.31.72-.59,1.31-.87,1.91l-1.4,2.78H39.9Z"/><path class="cls-2" d="M53,87.71,49.85,82h2.32l1.31,2.61c.28.54.53,1.09.89,1.8h.07c.29-.71.53-1.26.79-1.8L56.48,82H58.7l-3.14,5.8,3.34,6H56.59L55.15,91c-.31-.6-.6-1.19-.95-1.91h-.07c-.31.72-.59,1.31-.87,1.91l-1.4,2.78H49.64Z"/><path class="cls-2" d="M59.33,88.49h4.28V90H59.33Z"/><path class="cls-2" d="M67.37,87.71,64.23,82h2.32l1.31,2.61c.28.54.54,1.09.89,1.8h.07c.3-.71.53-1.26.79-1.8L70.86,82h2.22l-3.14,5.8,3.35,6H71L69.53,91c-.31-.6-.6-1.19-1-1.91h-.07c-.31.72-.59,1.31-.87,1.91l-1.4,2.78H64Z"/><path class="cls-2" d="M77.1,87.71,74,82h2.32l1.31,2.61c.28.54.53,1.09.89,1.8h.07c.29-.71.53-1.26.79-1.8L80.6,82h2.22l-3.14,5.8,3.34,6H80.71L79.27,91c-.31-.6-.6-1.19-1-1.91h-.07c-.31.72-.59,1.31-.87,1.91L76,93.78H73.76Z"/><path class="cls-2" d="M86.84,87.71,83.71,82H86l1.31,2.61c.28.54.53,1.09.88,1.8h.08c.29-.71.53-1.26.79-1.8L90.33,82h2.22l-3.13,5.8,3.34,6H90.44L89,91c-.3-.6-.6-1.19-.94-1.91H88c-.31.72-.59,1.31-.87,1.91l-1.4,2.78H83.5Z"/><path class="cls-2" d="M96.58,87.71,93.45,82h2.32l1.31,2.61c.28.54.53,1.09.88,1.8H98c.3-.71.54-1.26.8-1.8L100.07,82h2.22l-3.13,5.8,3.34,6h-2.32L98.74,91c-.3-.6-.6-1.19-.94-1.91h-.08c-.3.72-.59,1.31-.87,1.91l-1.39,2.78H93.24Z"/><path class="cls-2" d="M106.32,87.71,103.18,82h2.32l1.31,2.61c.29.54.54,1.09.89,1.8h.07c.3-.71.54-1.26.79-1.8L109.81,82H112l-3.13,5.8,3.34,6h-2.32L108.48,91c-.3-.6-.6-1.19-.94-1.91h-.08c-.31.72-.59,1.31-.87,1.91l-1.4,2.78H103Z"/><path class="cls-2" d="M116.05,87.71,112.92,82h2.32l1.31,2.61c.28.54.53,1.09.89,1.8h.07c.29-.71.53-1.26.79-1.8L119.55,82h2.22l-3.14,5.8,3.35,6h-2.32L118.22,91c-.31-.6-.6-1.19-1-1.91h-.07c-.31.72-.59,1.31-.87,1.91l-1.4,2.78h-2.22Z"/><path class="cls-2" d="M122.4,88.49h4.28V90H122.4Z"/><path class="cls-2" d="M130.44,87.71,127.3,82h2.32l1.31,2.61c.28.54.54,1.09.89,1.8h.07c.3-.71.53-1.26.79-1.8L133.93,82h2.22L133,87.81l3.34,6H134L132.6,91c-.31-.6-.6-1.19-.95-1.91h-.07c-.31.72-.59,1.31-.87,1.91l-1.4,2.78h-2.22Z"/><path class="cls-2" d="M140.17,87.71,137,82h2.32l1.31,2.61c.28.54.54,1.09.89,1.8h.07c.3-.71.53-1.26.79-1.8L143.67,82h2.22l-3.14,5.8,3.35,6h-2.32L142.34,91c-.31-.6-.6-1.19-1-1.91h-.07c-.31.72-.59,1.31-.87,1.91l-1.4,2.78h-2.22Z"/><path class="cls-2" d="M149.91,87.71,146.78,82h2.32l1.31,2.61c.28.54.53,1.09.88,1.8h.08c.29-.71.53-1.26.79-1.8L153.41,82h2.21l-3.13,5.8,3.34,6h-2.32L152.07,91l-.94-1.91h-.07c-.31.72-.59,1.31-.87,1.91l-1.4,2.78h-2.22Z"/><path class="cls-2" d="M159.65,87.71,156.52,82h2.32l1.31,2.61c.28.54.53,1.09.88,1.8h.07c.3-.71.54-1.26.8-1.8L163.14,82h2.22l-3.13,5.8,3.34,6h-2.32L161.81,91c-.3-.6-.6-1.19-.94-1.91h-.08c-.3.72-.59,1.31-.87,1.91l-1.39,2.78h-2.22Z"/><path class="cls-2" d="M177.54,22.12A7.89,7.89,0,0,1,185.45,30v81a7.89,7.89,0,0,1-7.91,7.91H8.46a7.6,7.6,0,0,1-5.6-2.31,7.62,7.62,0,0,1-2.31-5.6V30a7.6,7.6,0,0,1,2.31-5.6,7.6,7.6,0,0,1,5.6-2.31H63.34a14.72,14.72,0,0,1-1.64-6.59A13.91,13.91,0,0,1,66,5.32,13.94,13.94,0,0,1,76.19,1a15.06,15.06,0,0,1,8.9,2.8,37,37,0,0,1,8.07,8.41,37.24,37.24,0,0,1,8.08-8.41A15.05,15.05,0,0,1,110.13,1a13.94,13.94,0,0,1,10.22,4.29,13.91,13.91,0,0,1,4.28,10.21A14.72,14.72,0,0,1,123,22.12Zm-98,10.54H9.09V55.75H176.91V32.66h-70.4l5.93,5.94a2.81,2.81,0,0,1,0,3.62l-2,2a2.81,2.81,0,0,1-3.62,0L95.31,32.66H90.69L79.16,44.2a2.81,2.81,0,0,1-3.62,0l-2-2a2.81,2.81,0,0,1,0-3.62ZM9.09,110.42H176.91V62.3H9.09ZM69.6,15.53a6.47,6.47,0,0,0,6.59,6.59H90.36a91.15,91.15,0,0,0-6.75-9.06A13.37,13.37,0,0,0,79.49,9.6a7.35,7.35,0,0,0-3.3-.66,6.47,6.47,0,0,0-6.59,6.59Zm40.53-6.59a7.33,7.33,0,0,0-3.29.66,13.37,13.37,0,0,0-4.12,3.46A91.15,91.15,0,0,0,96,22.12h14.16a6.46,6.46,0,0,0,6.59-6.59,6.46,6.46,0,0,0-6.59-6.59Z"/></svg>